<?xml version="1.0" standalone="no"?>
<!DOCTYPE svg PUBLIC "-//W3C//DTD SVG 20010904//EN"
 "http://www.w3.org/TR/2001/REC-SVG-20010904/DTD/svg10.dtd">
<svg version="1.0" xmlns="http://www.w3.org/2000/svg"
 width="500.000000pt" height="500.000000pt" viewBox="0 0 500.000000 500.000000"
 preserveAspectRatio="xMidYMid meet">
<metadata>
Created by potrace 1.16, written by Peter Selinger 2001-2019
</metadata>
<g transform="translate(0.000000,500.000000) scale(0.100000,-0.100000)"
fill="#000000" stroke="none">
<path d="M22 2513 l3 -2488 2478 -3 2477 -2 0 2490 0 2490 -2480 0 -2480 0 2
-2487z m4896 10 l-3 -2418 -2412 -3 -2413 -2 0 2420 0 2420 2415 0 2415 0 -2
-2417z"/>
<path d="M2270 4549 c-110 -12 -301 -56 -415 -96 -620 -214 -1128 -751 -1311
-1387 -92 -319 -104 -610 -38 -936 160 -796 788 -1428 1586 -1599 246 -52 546
-55 778 -6 312 65 602 202 845 398 164 132 354 349 472 538 271 433 367 981
261 1494 -84 414 -341 846 -668 1127 -136 116 -263 200 -428 282 -273 137
-549 198 -876 195 -72 -1 -165 -5 -206 -10z m120 -778 l0 -369 -69 -15 c-99
-23 -219 -71 -292 -119 -167 -108 -308 -326 -356 -553 -24 -112 -13 -335 21
-450 73 -242 220 -431 411 -528 74 -37 180 -73 240 -83 l45 -6 0 -370 c0 -347
-1 -369 -17 -364 -10 2 -45 7 -78 11 -33 3 -75 9 -92 12 l-33 5 -2 216 -3 216
-95 36 c-333 125 -566 376 -685 733 -63 192 -79 368 -51 557 40 259 164 506
354 698 126 128 237 198 397 253 l80 27 3 216 2 215 33 6 c74 14 134 23 160
24 l27 1 0 -369z m403 342 l67 -15 0 -217 0 -218 40 -12 c82 -24 236 -110 300
-168 230 -204 376 -469 426 -772 33 -204 1 -458 -84 -664 -128 -311 -334 -529
-603 -637 l-79 -32 0 -213 c0 -195 -2 -214 -17 -219 -10 -3 -49 -10 -88 -16
-38 -6 -80 -13 -92 -16 l-23 -4 0 370 0 370 28 6 c125 28 213 65 315 130 86
56 208 176 264 261 84 127 143 320 143 469 0 93 -23 224 -56 316 -97 270 -325
475 -604 541 l-90 22 0 373 0 374 43 -7 c23 -4 72 -13 110 -22z m-843 -91 c0
-26 -7 -31 -91 -65 -185 -76 -330 -178 -495 -349 l-111 -115 -7 -114 c-4 -63
-6 -150 -5 -195 1 -71 -2 -90 -35 -171 -64 -159 -96 -322 -96 -481 0 -150 45
-370 105 -512 24 -56 25 -70 25 -242 0 -156 3 -188 18 -215 26 -48 150 -181
231 -247 91 -75 261 -176 374 -223 81 -33 87 -38 87 -64 0 -16 -4 -29 -8 -29
-16 0 -137 52 -227 97 -200 101 -400 272 -550 471 -150 200 -253 466 -291 756
-20 152 -14 379 15 511 65 300 203 579 381 768 184 197 383 339 583 418 90 36
97 36 97 1z m1260 -28 c207 -98 413 -266 570 -463 141 -178 258 -446 312 -713
19 -94 23 -144 22 -293 -1 -155 -4 -198 -27 -306 -50 -239 -138 -454 -259
-631 -86 -128 -285 -326 -408 -407 -105 -69 -277 -157 -327 -167 -29 -6 -33
-4 -33 15 0 11 1 24 1 29 1 4 36 21 78 38 178 73 336 184 480 337 109 116 103
96 100 307 -3 182 -3 186 23 235 141 274 162 670 52 977 -15 40 -39 98 -55
128 l-28 55 5 185 5 185 -78 87 c-93 104 -208 201 -319 268 -83 51 -201 110
-219 110 -27 0 -52 30 -47 55 6 33 22 30 152 -31z m-820 -849 c0 -30 -3 -35
-24 -35 -40 0 -179 -77 -234 -129 -172 -165 -229 -414 -152 -663 52 -169 182
-304 346 -358 62 -21 64 -23 64 -55 l0 -33 -42 9 c-24 5 -81 28 -127 51 -390
195 -470 758 -152 1078 81 82 136 119 223 150 82 30 98 27 98 -15z m356 4
c141 -53 280 -181 350 -324 97 -198 97 -394 0 -590 -75 -150 -202 -268 -356
-331 -84 -34 -100 -32 -100 10 0 32 3 34 63 56 226 81 373 276 393 518 13 163
-56 344 -175 461 -67 66 -160 124 -235 146 -38 11 -41 15 -44 50 -3 36 -2 37
23 31 14 -4 51 -16 81 -27z m-126 -350 c179 -81 234 -311 111 -467 -59 -74
-132 -107 -236 -106 -66 0 -89 4 -131 26 -62 32 -109 84 -142 156 -21 47 -24
65 -20 131 7 118 60 201 161 251 51 26 72 30 136 30 55 0 89 -6 121 -21z"/>
<path d="M1593 3183 c-89 -128 -162 -317 -187 -486 -39 -258 1 -475 134 -737
61 -118 80 -140 106 -119 24 20 16 55 -31 130 -151 245 -192 570 -109 857 25
84 95 238 134 290 28 37 24 86 -6 90 -15 2 -28 -6 -41 -25z"/>
</g>
</svg>
